<?xml version="1.0" standalone="no"?><!DOCTYPE svg PUBLIC "-//W3C//DTD SVG 1.1//EN" "http://www.w3.org/Graphics/SVG/1.1/DTD/svg11.dtd"><svg t="1630936554963" class="icon" viewBox="0 0 1558 1024" version="1.1" xmlns="http://www.w3.org/2000/svg" p-id="4097" xmlns:xlink="http://www.w3.org/1999/xlink" width="304.296875" height="200"><defs><style type="text/css"></style></defs><path d="M176.836923 699.757714c5.660132 0.112527 10.183736 4.754286 10.183736 10.44255 0 5.767033-4.467341 10.448176-10.183736 10.448176H155.850549v21.098901a10.414418 10.414418 0 0 1-10.391912 10.234373 10.194989 10.194989 0 0 1-7.319912-2.936967 10.30189 10.30189 0 0 1-3.066373-7.303033v-21.098901h-20.986374a10.420044 10.420044 0 0 1-10.183736-10.442549c0-5.761407 4.467341-10.442549 10.183736-10.44255h20.986374v-21.098901c0.112527-5.682637 4.726154-10.234374 10.386285-10.234373 5.738901 0 10.391912 4.489846 10.391912 10.24v21.098901h20.986374z m1350.498462-83.551648v-21.098901a10.30189 10.30189 0 0 0-3.066374-7.297407 10.194989 10.194989 0 0 0-7.325538-2.936967 10.414418 10.414418 0 0 0-10.386286 10.24v21.093275h-20.986374c-2.734418 0.011253-5.350681 1.125275-7.263648 3.083253-1.912967 1.963604-2.965099 4.613626-2.925714 7.359296 0 5.598242 4.574242 10.442549 10.183736 10.44255h20.986373v21.098901c0 5.744527 4.658637 10.24 10.391913 10.24a10.414418 10.414418 0 0 0 10.391912-10.24v-21.098901h20.986373c5.716396 0 10.183736-4.675516 10.183737-10.44255 0-5.682637-4.523604-10.330022-10.183737-10.442549h-20.986373z m-754.896176 344.654769h-523.14022a20.643165 20.643165 0 0 1-14.679209-6.115868 20.862593 20.862593 0 0 1-6.037099-14.769231c0-11.534066 9.412923-20.890725 20.716308-20.890725h94.241758a83.343473 83.343473 0 0 1-11.06145-41.674549V271.444396a83.709187 83.709187 0 0 1 24.395956-59.060044 82.837099 82.837099 0 0 1 58.806857-24.39033h62.26145v-20.992a83.709187 83.709187 0 0 1 24.39033-59.060044 82.837099 82.837099 0 0 1 58.812484-24.39033h498.552967a82.797714 82.797714 0 0 1 58.823736 24.379077 83.664176 83.664176 0 0 1 24.379077 59.071297v605.971692a83.382857 83.382857 0 0 1-11.072703 41.668923h187.712703c11.489055 0 20.800703 13.773363 20.800703 20.890726 0 7.117363-9.249758 20.885099-20.783824 20.885099H997.443516v20.992a83.382857 83.382857 0 0 1-11.078329 41.674549h11.14022c11.427165 0 20.716308 9.272264 20.716307 20.890725 0 11.52844-9.412923 20.885099-20.716307 20.885099h-109.32044a41.820835 41.820835 0 0 1-6.380308 50.862418 41.34822 41.34822 0 0 1-29.386549 12.276747c-11.027692 0-21.605275-4.416703-29.380923-12.276747l-50.597978-50.862418z m142.049055-41.775824c22.859956 0 41.393231-18.589538 41.393231-41.882725V270.45978c0-22.561758-17.948132-40.689934-40.104792-40.689934H414.14611c-22.151033 0-40.104791 18.218198-40.104791 40.689934v606.748132c0 23.124396 18.702066 41.877099 41.370725 41.877099h315.442637L720.175824 908.327385a41.843341 41.843341 0 0 1-10.802637-40.374858l-19.619165-19.742945c-61.119297 45.736791-146.989011 36.329495-196.866813-21.571516-49.883429-57.895385-46.884571-144.670945 6.875428-198.948571 53.923165-54.39578 140.518681-57.59156 198.267781-7.314286 57.743473 50.271648 66.965099 136.884044 21.104527 198.301538l19.636044 19.737319a41.269451 41.269451 0 0 1 40.172308 10.842022l69.463208 69.828923h66.081759z m145.481143-104.442374c22.876835-0.112527 41.365099-18.780835 41.376351-41.775824V167.108923c0-23.146901-18.538901-41.781451-41.376351-41.78145h-499.115605c-22.865582 0.129407-41.342593 18.792088-41.353846 41.78145v20.885099h394.740747a82.797714 82.797714 0 0 1 58.823737 24.373451 83.664176 83.664176 0 0 1 24.379076 59.076923v543.198241h62.525891zM264.945934 46.997099h30.961934a15.691956 15.691956 0 0 1 15.793231 15.66945c0 8.647736-7.066725 15.663824-15.793231 15.663825H264.945934v31.125099c0 8.777143-6.92044 15.872-15.585055 15.872a15.646945 15.646945 0 0 1-11.06145-4.692396 15.81011 15.81011 0 0 1-4.523605-11.179604v-31.125099h-30.961934a15.60756 15.60756 0 0 1-11.14022-4.529231 15.770725 15.770725 0 0 1-4.653011-11.14022c0-8.64211 7.066725-15.663824 15.793231-15.663824h30.961934V15.877626C233.775824 7.100484 240.696264 0 249.360879 0c8.602725 0 15.585055 7.100484 15.585055 15.877626v31.119473z m-223.445802 872.087912h124.80422c11.427165 0 20.716308 9.272264 20.716307 20.890725 0 11.52844-9.412923 20.885099-20.716307 20.885099H41.500132a20.643165 20.643165 0 0 1-14.684835-6.115868 20.862593 20.862593 0 0 1-6.037099-14.769231c0-11.534066 9.412923-20.890725 20.721934-20.890725z m661.492747-215.028747c-9.60422-36.048176-37.617934-64.202549-73.480439-73.863033a103.54778 103.54778 0 0 0-100.36888 27.034725c-40.583033 40.791209-40.583033 106.929231 0 147.726066 40.583033 40.791209 106.377846 40.791209 146.96088 0a104.824967 104.824967 0 0 0 26.894065-100.897758zM457.159736 313.327121c0-11.534066 9.294769-20.879473 20.761319-20.890725h228.59956c11.477802 0 20.783824 9.351033 20.783825 20.890725 0 11.534066-9.306022 20.885099-20.783825 20.885099H477.94356a20.66567 20.66567 0 0 1-14.712967-6.098989 20.879473 20.879473 0 0 1-6.070857-14.78611z m20.637539 83.551648h332.771868c11.38778 0 20.631912 9.272264 20.631912 20.885099 0 11.534066-9.244132 20.890725-20.631912 20.890725H477.791648a20.60378 20.60378 0 0 1-14.639824-6.132747 20.817582 20.817582 0 0 1-5.997714-14.757978c0-11.52844 9.249758-20.885099 20.637538-20.885099z m-20.637539 125.327473c0-11.534066 9.272264-20.885099 20.738813-20.885099h145.543033a20.766945 20.766945 0 0 1 20.738814 20.885099c0 11.534066-9.266637 20.890725-20.738814 20.890725H477.904176a20.643165 20.643165 0 0 1-14.684835-6.110242 20.862593 20.862593 0 0 1-6.053978-14.780483zM8.349538 365.545495a62.947868 62.947868 0 0 1 0-62.66655 62.283956 62.283956 0 0 1 53.990682-31.333275c34.433407 0 62.34022 28.058725 62.34022 62.66655S96.773626 396.884396 62.34022 396.884396a62.283956 62.283956 0 0 1-53.990682-31.333275z m80.991649-15.663825a31.473934 31.473934 0 0 0 0-31.338901 31.141978 31.141978 0 0 0-27.000967-15.663824c-17.216703 0-31.164484 14.032176-31.164484 31.338901 0 17.295473 13.953407 31.322022 31.164484 31.327649a31.141978 31.141978 0 0 0 27.000967-15.663825z m1199.025231-140.996923c0-34.607824 27.906813-62.666549 62.340219-62.666549 34.42778 0 62.34022 28.058725 62.34022 62.666549 0 34.602198-27.91244 62.660923-62.34022 62.660923-34.433407 0-62.34022-28.053099-62.340219-62.660923z m89.33556 15.663824a31.473934 31.473934 0 0 0 0-31.333274 31.141978 31.141978 0 0 0-26.995341-15.663824c-17.216703 0-31.17011 14.026549-31.17011 31.333274 0 17.301099 13.953407 31.327648 31.17011 31.333275a31.141978 31.141978 0 0 0 26.995341-15.669451z" fill="#8A96A3" opacity=".3" p-id="4098"></path></svg>