<?xml version="1.0" standalone="no"?><!DOCTYPE svg PUBLIC "-//W3C//DTD SVG 1.1//EN" "http://www.w3.org/Graphics/SVG/1.1/DTD/svg11.dtd"><svg t="1618819702728" class="icon" viewBox="0 0 1024 1024" version="1.1" xmlns="http://www.w3.org/2000/svg" p-id="1906" xmlns:xlink="http://www.w3.org/1999/xlink" width="200" height="200"><defs><style type="text/css"></style></defs><path d="M475.767 963.467c-17.1 0-33.2-6.7-45.3-18.7L83.267 597.467C71.167 585.367 64.567 569.267 64.567 552.167c0-17.1 6.7-33.2 18.7-45.3L456.967 133.167c12.1-12.1 28.2-18.7 45.3-18.7h358.1c29.3 0 53.1 23.8 53.1 53.1v358.1c0 17.1-6.7 33.2-18.7 45.3L521.067 944.667c-12.1 12.1-28.2 18.8-45.3 18.8zM151.167 552.267l324.6 324.6L833.467 519.167V194.467H508.867L151.167 552.267z" fill="#111111" p-id="1907"></path><path d="M639.967 387.967m-77.5 0a77.5 77.5 0 1 0 155 0 77.5 77.5 0 1 0-155 0Z" fill="#111111" p-id="1908"></path></svg>